<svg width="73" height="153" viewBox="0 0 73 153" fill="none" xmlns="http://www.w3.org/2000/svg">
<path d="M4.08482 106.07L36.372 5.38817L68.6627 106.08L68.6628 106.081L68.6639 106.084L68.6651 106.088L68.6701 106.105C68.6759 106.123 68.685 106.153 68.6972 106.194C68.7214 106.275 68.7577 106.399 68.8036 106.562C68.8956 106.889 69.0261 107.375 69.1766 107.996C69.4777 109.239 69.8573 111.022 70.1666 113.164C70.7872 117.461 71.114 123.132 70.0017 128.761C68.8922 134.376 66.3676 139.88 61.3338 143.993C56.2988 148.108 48.5788 150.974 36.8037 150.974C25.0299 150.974 17.2502 148.108 12.1302 143.986C7.0107 139.865 4.38202 134.352 3.16864 128.735C1.95212 123.104 2.17472 117.433 2.71597 113.137C2.98571 110.996 3.3324 109.213 3.61044 107.97C3.74937 107.349 3.87093 106.864 3.95678 106.537C3.99969 106.374 4.03366 106.25 4.05638 106.169C4.06774 106.129 4.07628 106.099 4.08173 106.08L4.08482 106.07Z" fill="#D9D9D9" stroke="black" stroke-width="3"/>
</svg>
