<svg xmlns="http://www.w3.org/2000/svg" xmlns:xlink="http://www.w3.org/1999/xlink" xml:space="preserve" id="svg176" width="131.57088" height="141.80042" version="1.1" viewBox="0 0 131.57087 141.80041">
  <style id="style_common">
    .trees { fill:#144043 }
    .cement { fill:#c6c2c2 }
    .land { fill:#1f5054 }
    .rock { fill:#dcd5b6 }
    .water { fill:#4a6b96 }
    .wood { fill:#593700 }
    .tarmac { fill:#768089 }
    .gravel { fill:#946d3e }
    .building { fill:#1a2632 }
    .floor { fill:#70777f }
    .locked { fill:#37414c }
    .map_border { fill:none;stroke:#000;stroke-width:2 }
    .fence { fill:none;stroke:#c4e3c3;stroke-width:1 }
    .road_tarmac { fill:none;stroke:#888 }
    .road_gravel { fill:none;stroke:#946d3e }
    .road_small { stroke-width:5 }
    .road_medium { stroke-width:8 }
    .road_large { stroke-width:12 }
    .railroad { fill:none;stroke:#914833;stroke-dasharray:6;stroke-width:3 }
    .powerline { fill:none;stroke:#ffce00;stroke-width:2;stroke-miterlimit:10;stroke-dasharray:6,6 }
    .danger { fill:red;fill-opacity:.4;stroke:red;stroke-dasharray:4,2;stroke-width:2 }
    .danger_small { fill:red;fill-opacity:.4;stroke:red;stroke-dasharray:2,1;stroke-width:1 }
    .task { fill:#000 }
    .stairs { fill:#FFD700 }
    .shadow { filter:drop-shadow(0 0 2px #000) }
  </style>
  <style id="style_factory">
    .wall { fill:none;stroke:#000;stroke-width:0.2; }
  </style>
  <defs id="defs1">
    <path id="stair-1" d="M39.0293 95.8173v11.3307h3.0521V95.8173Z"></path>
    <path id="stair-2" d="M30.3686 114.855h-6.6765v3.026h6.6765Z"></path>
    <path id="stair-3" d="M23.8828 120.654h6.6384v2.098h-6.6384Z"></path>
    <path id="stair-4" d="M28.3084 73.1934v5.6464h2.0601v-5.6464Z"></path>
    <path id="stair-7" d="m73.4228 95.264 9.0228.0195-.0079 3.6622-9.0228-.0195Z"></path>
    <path id="stair-8" d="M86.9471 62.1296v7.0499h2.9758v-7.0499Z"></path>
    <path id="stair-220" d="M86.0695 50.4554v-6.8292h4.9597v6.8292Z"></path>
    <path id="stair-221" d="M98.7144 40.9667h2.7866v-1.4918h-2.7866Z"></path>
    <path id="stair-222" d="M98.2512 9.78584v1.42356h2.4038V9.78584Z"></path>
    <path id="stair-223" d="M45.7435 63.3417h1.3624v4.8857h-1.3624Z"></path>
    <path id="stair-224" d="M54.3006 60.6011h1.3622v4.8857h-1.3622Z"></path>
    <path id="stair-69" d="M18.1971 112.104v5.854h2.7363v-5.854Zm1.3028 1.125h.1308v3.602h-.1308Z"></path>
    <path id="stair-96" d="M13.955 71.2769v5.8536h2.7363v-5.8536Zm1.3027 1.125h.1308v3.6016h-.1308Z"></path>
    <path id="stair-97" d="M52.1083 94.2559v5.8531h2.7363v-5.8531Zm1.3027 1.125h.1309v3.6015h-.1309Z"></path>
    <path id="stair-100" d="M70.1625 91.9701v5.8535h2.7363v-5.8535Zm1.3027 1.125h.1309v3.6015h-.1309Z"></path>
    <path id="stair-101" d="M96.8272 22.38h-5.8535v2.7364h5.8535Zm-1.125 1.3028v.1308h-3.6016v-.1308Z"></path>
    <path id="stair-129" d="M47.8588 43.8666v4.482h2.7364v-4.482Zm1.3028.8614h.1308v2.7577h-.1308Z"></path>
    <path id="stair-62" d="M27.88 30.243h-2.7258v-4.1555H27.88"></path>
    <path id="stair-127" d="M30.1396 40.345H24.455v3.2048h5.6846Zm-1.0925 1.5258v.1533h-3.4976v-.1533Z"></path>
    <path id="stair-128" d="M30.1778 66.4025h-5.6846v3.2048h5.6846Zm-1.0926 1.5258v.1532h-3.4976v-.1532Z"></path>
    <path id="stair-63" d="M24.5935 88.2721h2.9143v1.2792h-2.9143"></path>
    <path id="stair-130" d="M24.5935 72.3313h2.9143v1.2792h-2.9143"></path>
    <path id="stair-131" d="m83.9712 41.4095-1.4406.0038.0125 5.2158 1.4405-.0038Z"></path>
    <path id="stair-132" d="M83.3613 40.0017h1.2252v-4.2555h-1.2252Z"></path>
    <path id="stair-140" d="M33.2482 95.1398h-1.2787v2.9043h1.2787Z"></path>
    <path id="stair-141" d="M47.4703 95.6599h-1.2787v2.9043h1.2787Z"></path>
    <path id="stair-155" d="M52.4838 25.3836v-4.1692h-1.1721v4.1692Z"></path>
    <path id="stair-226" d="M70.6572 25.3836v-4.1692H69.485v4.1692Z"></path>
  </defs>
  
  <g id="Ground_Floor">
    <g id="Floor" class="floor">
      <path d="M8.01179 135.8v-9.767h-.27978v.611H3.20472v-4.846H0V87.1569h2.86135v7.8019h.36244l.0096-12.5232.0096-12.5232H31.1697v-.3051h-6.6765v-3.2048h6.9817v-.1145h-8.4315V59.23h6.1043v-.267h-6.1043v-7.5917h6.1615v-.2676h-2.1546l-.01-2.8922h-.1525v2.8922h-5.9045V46.144h5.9045v.9133h.1615v-.9133h3.9296v-2.5942H24.455V40.345h5.6846v-.3433h-4.9607V22.2232H1.43068v-6.791H25.1789v-5.303h16.12l16.4242-.0084v-.29681H55.701V6.54297h41.318V3.10934h21.403v.80118h13.149v6.80998h-13.149v7.3801l-8.477.0013-8.508.0317-.021 5.5605.01 5.5299 8.608.0192v6.7908h-1.569v20.1435l-2.566.0098-2.566.0098-.01 17.4256-.01 17.4257h23.885v6.9054h-23.885v2.1362l-20.0958.01-20.0963.009-.0192 13.047H56.311l-.0192-13.047H46.1913v-.5147H46.01v.5147h-3.7389v-4.7876H46.01v3.2428h.1816v-3.4244h-4.1109l-.0097 5.9902-.0097 5.999h-3.014l-.0097-5.961-.0097-6.0282h-5.7797l-.0096 11.4462-.0096 11.359h-1.5641v.382h1.488v2.327h-2.5943v2.175H15.127v-1.679h-.2861v20.65H8.01179Zm0-14.46v-3.395H6.09962v.305h1.63239v6.486h.27978Zm7.11521-2.126v-.887h14.7837v-.382H14.8409v2.156h.2861Zm-10.09102-1.116v-.153H3.24332l-.00976-3.1-.00976-3.111h-.36244v6.516h2.17462Zm-1.81219-10.149v-2.727h-.36244v5.455h.36244Zm.00971-7.868.00971-4.073h-.38186v8.145h.36244Zm29.9964-19.9249.0381-10.2437.0382-.6867v-.6867h-.3434v1.0683h-.5767v.3051h.5004v20.0388h-4.8261l-.0115.2291-.0114.2194h5.1924Zm35.2137 8.4124v-.1526h.8775v-.6486h-.8775v-.4197h-.3052v.4197h-.763v.6486h.763v.3052h.3052Zm0-11.4823v-.5711l.4292-.0108.4292-.0108.011-.3338.0111-.3338h-.8805V64.6475h.8393v-.6867h-.8393V52.7443h.8775v-.6486h-.8775V40.8411h.8775v-.8684h-3.9868v.3152h2.0411v.5532h.763v11.2546h-.763v.6486h.763v11.2165h-.7249v.6867h.7249v11.1784h-.763v.6867h.763v1.1446h.3052ZM33.3062 56.2733V45.2285h-.3434l-.0044 2.909.002 16.1762.0024 3.0044h.3434Zm71.8008-11.6362V36.034h-4.502v.3052h2.556v4.6163h-6.0275v-2.5793h-.3053v1.6255h-2.4798l-3.3192.0002v10.4535l-2.4989-.0002h-2.4608V40.0017h-2.7082l-.0098-2.8518-.0098-3.0044-.5437-.0106-.5437-.0106v.3836h.6868v5.1886h-9.1564v-3.281h-.3815v3.8533h10.568v11.5501l.1499.024 9.2708.0249 9.1211.001v.8755h.801v.4578h1.793Zm-71.8008-2.4604V40.345h4.1775l.0106-.6199.0106-.5627h-.6888v.8393h-5.4557v.3433h1.6024v3.7007h.3434Zm30.998-2.0414v-.1626h-2.9568v-.8103h-.6485v1.1255h3.6053Zm32.8293-3.3574v-.4387h2.3272v-.3052h-2.6325v1.1827h.3053Zm-23.3487-1.7931v-.4769h7.4967v-.3624l-3.9391-.0097-3.9391-.0097v1.3357h.3815Zm23.9997-5.6178v-.4292h-.651v-.9156h-.3073v1.1115h.2578v.6735h.7005Zm-.651-9.6046v-7.1152h-.3053v7.1152l-.0021 7.1153h.3074Zm0-9.2135v-.76306h4.3495v.19075h.953v-.68672h-.953v.19022l-2.566.00981-2.5774.00981v.32427h-.3947v.29682h.3111v.6951h.5722v.496h.3053Zm-35.7861-.0763v-.3518h.7631v-.29681H59.974v.29681h.7249v.6951h.6485Zm4.2349-.64861h-1.2972v.29681h1.2972Zm3.7388 0h-.9919v.29681h.9919Zm16.3979 0H72.068v.29681h13.651Zm3.7842 0h-1.0301v.29681h1.0301Zm3.7434 0h-.9965v.29681h.9728Z"></path>
    </g>
    <g id="Ledge" class="cement">
      <path d="M45.8099 53.2188h9.7709v34.1086h-9.7709Z"></path>
      <path d="M78.7445 43.8932h1.526v6.6383h-1.526Z"></path>
      <path d="M73.8611 43.8932h1.5261v6.6383h-1.5261Z"></path>
      <path d="M32.8865 69.9124v20.0388h-4.8261V69.9124Z"></path>
    </g>
    <g id="Obstacles" class="building">
      <path d="M25.8295 23.4658h4.823v1.6977h-4.823Z"></path>
      <path d="M62.674 13.2845h5.995v14.9023h-5.995Z"></path>
      <path d="M39.5213 24.6473h1.9084v2.0584h-1.9084Z"></path>
      <path d="M70.6731 61.425h2.7897v5.4957h-2.7897Z"></path>
      <path d="m74.2206 62.0443 2.7742.2942-.5795 5.465-2.7741-.2942Z"></path>
      <path d="m85.9186 77.481.9693 2.6159-5.1533 1.9093-.9692-2.6159Z"></path>
      <path d="M90.5841 80.3475h2.7897v5.4957h-2.7897Z"></path>
      <path d="M95.4879 79.5704h2.7897v5.4957h-2.7897Z"></path>
      <path d="M89.847 75.2688h5.1752v2.7991H89.847Z"></path>
      <path d="M101.038 67.3252h-2.4748v6.1868h2.4748Z"></path>
      <path d="m75.4752 90.3638-1.8181-5.2472-1.8127.6281 1.8181 5.2472Z"></path>
      <path d="m48.3132 88.2085-4.8008 2.1199-.7341-1.6624 4.8008-2.1199Z"></path>
      <path d="M75.9744 7.00693c.1551.01034 1.893.08275 1.893.08275l-.0429.98138-1.893-.08276Z"></path>
      <path d="m22.5726 17.4323-.2002 1.6948-4.8088-.568.2002-1.6948Z"></path>
      <path d="m58.7151 52.1984 4.8697.02.007-1.6965-4.8697-.02Z"></path>
      <path d="m68.0545 46.8988-4.8397-.42-.1455 1.6764 4.8397.42Z"></path>
      <path d="m65.0447 41.6391-.03 4.8697 1.667.0103.03-4.8697Z"></path>
      <path d="M53.254 13.2845h5.995v14.9023h-5.995Z"></path>
      <path d="m96.244 54.1979-.0723.5215.2129.0293-.0351.2481-1.336-.1875-.0156.1172 1.2793.1796-.0742.5333-1.2832-.1797-.0176.125 1.3398.1875-.0312.2207-.211-.0293-.0761.5351.957.1348.0352-.252 2.4257.3399.2559-1.8203-2.4414-.3418.0332-.2285Z"></path>
      <path d="m98.4522 64.6107.0128-.5264-.2148-.005.0069-.2504 1.3486.0352.002-.1182-1.2914-.0338.0134-.5382 1.2953.0334.003-.1262-1.3525-.0347.0061-.2229.2129.0052.0152-.5403-.9661-.0257-.0065.2544-2.4487-.0634-.0483 1.8376 2.4644.0635-.0071.2308Z"></path>
      <path d="m92.2596 55.7965.0128-.5263-.2148-.005.0069-.2504 1.3486.0352.002-.1182-1.2915-.0339.0135-.5382 1.2953.0335.003-.1262-1.3525-.0348.0061-.2228.2129.0052.0152-.5404-.9662-.0256-.0065.2543-2.4486-.0633-.0484 1.8375 2.4644.0635-.0071.2308Z"></path>
      <path d="m83.5706 59.1721-.2831-.4439-.1811.1158-.134-.2117 1.1386-.7235-.0643-.0992-1.0904.6928-.2893-.4541 1.0934-.6952-.0679-.1064-1.1416.726-.1193-.1883.1796-.1145-.2891-.4568-.8159.518.1365.2146-2.0671 1.3142.9856 1.5517 2.0802-1.3228.1229.1954Z"></path>
      <path d="m32.6556 91.8297.0451.5245.2141-.0186.0206.2497-1.3442.1132.0107.1177 1.2873-.1083.0458.5364-1.2911.1092.0105.1258 1.3481-.1141.0185.2221-.2122.0182.0443.5387.9631-.0806-.0216-.2535 2.4408-.2062-.1539-1.8318-2.4564.2078-.0183-.2302Z"></path>
      <path d="m10.9566 107.579-.5058-.146-.0595.206-.2404-.07.3767-1.296-.1137-.032-.3609 1.241-.51712-.15.36145-1.244-.1212-.036-.37729 1.299-.21396-.062.05915-.205-.51875-.152-.27029.928.24433.071-.68345 2.352 1.76497.514.68766-2.367.2214.065Z"></path>
      <path d="m116.002 14.0786.09-.5187-.212-.0366.044-.2466 1.329.2331.019-.1166-1.272-.2234.092-.5304 1.276.2236.022-.1244-1.333-.2333.039-.2195.21.0365.094-.5323-.952-.1674-.044.2505-2.413-.4227-.318 1.8105 2.429.4252-.041.2272Z"></path>
      <path d="m110.548 7.86098.125-.51139-.209-.05083.06-.24314 1.31.32277.027-.11504-1.254-.30922.128-.52287 1.258.30964.03-.12263-1.313-.32318.053-.21638.207.05061.131-.52459-.939-.23166-.061.24693-2.378-.58546-.441 1.78473 2.394.589-.056.22398Z"></path>
      <path d="M78.3676 42.9224h2.4191v6.3742h-2.4191Z"></path>
      <path d="m37.1224 66.172.3993-.3431-.1402-.1628.1905-.1627.8774 1.0248.0891-.0777-.8401-.9814.4085-.3506.843.984.0957-.0823-.8803-1.0274.1695-.1447.1388.1615.4113-.3507-.6282-.7345-.1932.1656-1.5935-1.8603-1.3966 1.1952 1.604 1.8721-.1761.1494Z"></path>
    </g>
    <g id="Stairs" class="stairs">
      <g id="Stairs-down">
        <use xlink:href="#stair-1" id="use112" x="0" y="0"></use>
        <use xlink:href="#stair-2" id="use113" x="0" y="0"></use>
        <use xlink:href="#stair-3" id="use114" x="0" y="0"></use>
        <use xlink:href="#stair-4" id="use115" x="0" y="0"></use>
        <use xlink:href="#stair-7" id="use116" x="0" y="0"></use>
        <use xlink:href="#stair-8" id="use117" x="0" y="0"></use>
        <use xlink:href="#stair-220" id="use118" x="0" y="0"></use>
        <use xlink:href="#stair-221" id="use119" x="0" y="0"></use>
        <use xlink:href="#stair-222" id="use120" x="0" y="0"></use>
        <use xlink:href="#stair-223" id="use121" x="0" y="0"></use>
        <use xlink:href="#stair-224" id="use122" x="0" y="0"></use>
      </g>
      <g id="Stairs-up">
        <use xlink:href="#stair-69" id="use141" x="0" y="0"></use>
        <use xlink:href="#stair-96" id="use142" x="0" y="0"></use>
        <use xlink:href="#stair-97" id="use143" x="0" y="0"></use>
        <use xlink:href="#stair-100" id="use144" x="0" y="0"></use>
        <use xlink:href="#stair-101" id="use145" x="0" y="0"></use>
        <use xlink:href="#stair-129" id="use146" x="0" y="0"></use>
        <use xlink:href="#stair-62" id="use147" x="0" y="0"></use>
        <use xlink:href="#stair-127" id="use148" x="0" y="0"></use>
        <use xlink:href="#stair-128" id="use149" x="0" y="0"></use>
        <use xlink:href="#stair-63" id="use150" x="0" y="0"></use>
        <use xlink:href="#stair-130" id="use151" x="0" y="0"></use>
        <use xlink:href="#stair-131" id="use152" x="0" y="0"></use>
        <use xlink:href="#stair-132" id="use153" x="0" y="0"></use>
        <use xlink:href="#stair-140" id="use154" x="0" y="0"></use>
        <use xlink:href="#stair-141" id="use155" x="0" y="0"></use>
        <use xlink:href="#stair-155" id="use226" x="0" y="0"></use>
        <use xlink:href="#stair-226" id="use227" x="0" y="0"></use>
      </g>
    </g>
    <g id="Wall" class="building wall">
      <path d="M24.1274 39.9331"></path>
      <path d="M37.5547 39.9331"></path>
      <path d="m6.39159 80.6715-.63189-6.1417 2.35588-.2074.55472 6.1408"></path>
      <path d="M8.23368 87.9322H14.329"></path>
      <path d="M8.23368 90.4016H14.329"></path>
      <path d="m5.4578 98.8201 11.2168-3.8816"></path>
      <path d="m6.32851 101.227 11.00739-3.9597"></path>
      <path d="M36.7573 35.4553V29.368"></path>
      <path d="M39.0723 35.4553V29.368"></path>
      <path d="M39.9881 23.994h6.1734v-6.0192"></path>
      <path d="M39.9881 21.0616h6.1734"></path>
      <path d="M47.3962 23.994h1.6978v-6.0192"></path>
      <path d="M96.8892 29.1337v5.4018"></path>
      <path d="M96.8892 35.571v.463"></path>
      <path d="M8.01378 130.683h1.54337"></path>
      <path d="M10.6709 130.683h4.1671"></path>
      <path d="M118.497 10.7207V5.78188"></path>
      <path d="M3.04257 120.254v1.543"></path>
      <path d="M58.6451 100.188h4.4758"></path>
      <path d="M57.5265 100.188h-1.2347"></path>
      <path d="M103.388 97.3365v.6173"></path>
      <path d="M103.388 91.0269v4.4757"></path>
      <path d="M116.004 95.5354v-4.4757"></path>
      <path d="M116.004 97.0278v.926"></path>
      <path d="M25.0792 22.2315v-4.7844"></path>
      <path d="M25.0792 16.3582v-.926"></path>
      <path d="M12.3978 17.4471v4.7844"></path>
      <path d="M12.3978 16.3582v-.926"></path>
      <path d="M57.3099 39.9331h-8.3342"></path>
      <path d="M58.7457 39.9331h1.9516"></path>
      <path d="m43.0632 38.2543 6.0481.7181"></path>
      <path d="m49.3319 36.6966-6.0481-.7181"></path>
      <path d="M32.4976 46.069h.463"></path>
      <path d="M31.4419 46.069h-.463"></path>
      <path d="M46.1975 43.7916h-.6173v4.167"></path>
      <path d="M45.5802 49.6564v.6173h8.0256v-6.4821"></path>
      <path d="M53.6058 42.4025v-2.4694"></path>
      <path d="M50.6734 47.0327v-7.0996"></path>
      <path d="M47.8172 43.7916h2.778"></path>
      <path d="M118.497 4.52787v-.61735"></path>
      <path d="M88.9068 93.2589v-1.852h12.6562v1.852"></path>
      <path d="M101.563 95.8336v1.852H88.9068v-1.852"></path>
      <path d="M3.04257 105.222v-1.069"></path>
      <path d="M8.01378 118.033h1.54337"></path>
      <path d="M10.6709 118.033h4.1671"></path>
      <path d="M65.5823 9.97238h2.7469"></path>
      <path d="M69.3211 9.97238h2.7469"></path>
      <path d="M85.719 9.97238h2.7541"></path>
      <path d="M89.5032 9.97238h2.7469"></path>
      <path d="M93.2348 9.97238h2.7101"></path>
    </g>
    <g id="Building" class="building">
      <path d="M54.429 82.2986c0 .9415-.374 1.8444-1.0397 2.5101-.6657.6657-1.5686 1.0397-2.5101 1.0397-.9414 0-1.8443-.374-2.51-1.0397-.6657-.6657-1.0397-1.5686-1.0397-2.5101 0-.9414.374-1.8443 1.0397-2.51.6657-.6657 1.5686-1.0397 2.51-1.0397.9415 0 1.8444.374 2.5101 1.0397.6657.6657 1.0397 1.5686 1.0397 2.51Z"></path>
      <path d="M54.429 58.5588c0 .9414-.374 1.8443-1.0397 2.51-.6657.6657-1.5686 1.0397-2.5101 1.0397-.9414 0-1.8443-.374-2.51-1.0397-.6657-.6657-1.0397-1.5686-1.0397-2.51 0-.9415.374-1.8444 1.0397-2.5101.6657-.6657 1.5686-1.0397 2.51-1.0397.9415 0 1.8444.374 2.5101 1.0397.6657.6657 1.0397 1.5686 1.0397 2.5101Z"></path>
      <path d="M54.429 70.2603c0 .9415-.374 1.8444-1.0397 2.5101-.6657.6657-1.5686 1.0397-2.5101 1.0397-.9414 0-1.8443-.374-2.51-1.0397-.6657-.6657-1.0397-1.5686-1.0397-2.5101 0-.9414.374-1.8443 1.0397-2.51.6657-.6657 1.5686-1.0397 2.51-1.0397.9415 0 1.8444.374 2.5101 1.0397.6657.6657 1.0397 1.5686 1.0397 2.51Z"></path>
      <path d="M64.0486 58.5588c0 .7675-.3049 1.5035-.8476 2.0462-.5427.5427-1.2787.8476-2.0462.8476-.7675 0-1.5036-.3049-2.0463-.8476s-.8475-1.2787-.8475-2.0462c0-.7675.3048-1.5035.8475-2.0462.5427-.5427 1.2788-.8476 2.0463-.8476.7675 0 1.5035.3049 2.0462.8476.5427.5427.8476 1.2787.8476 2.0462Z"></path>
      <path d="M64.0486 82.2986c0 .7675-.3049 1.5037-.8476 2.0463-.5427.5427-1.2787.8475-2.0462.8475-.7675 0-1.5036-.3048-2.0463-.8475-.5427-.5426-.8475-1.2788-.8475-2.0463 0-.7675.3048-1.5035.8475-2.0462.5427-.5427 1.2788-.8476 2.0463-.8476.7675 0 1.5035.3049 2.0462.8476.5427.5427.8476 1.2787.8476 2.0462Z"></path>
      <path d="M64.0486 70.2603c0 .7675-.3049 1.5036-.8476 2.0463s-1.2787.8476-2.0462.8476c-.7675 0-1.5036-.3049-2.0463-.8476s-.8475-1.2788-.8475-2.0463c0-.7674.3048-1.5035.8475-2.0462.5427-.5427 1.2788-.8476 2.0463-.8476.7675 0 1.5035.3049 2.0462.8476.5427.5427.8476 1.2788.8476 2.0462Z"></path>
      <path d="M74.3846 12.2683v1.8515h-.9179v2.8223h.9179v1.8144h7.0742v-1.8144h5.7168v-2.8223h-5.7168v-1.8515Z"></path>
    </g>
  </g>
  
  
</svg>