<svg width="100" height="100" viewBox="0 0 100 100" fill="none" xmlns="http://www.w3.org/2000/svg">
<path d="M7.12872 62.2306C7.12872 60.8085 8.28152 59.6557 9.70357 59.6557H20.003C21.425 59.6557 22.5778 60.8085 22.5778 62.2306V91.8413H7.12872V62.2306Z" fill="#9A8866"/>
<rect x="30.5598" y="59.6557" width="15.4491" height="32.1856" fill="#9A8866"/>
<path d="M53.991 30.0449C53.991 28.6228 55.1438 27.47 56.5658 27.47H66.8652C68.2873 27.47 69.4401 28.6228 69.4401 30.0449V91.8413H53.991V30.0449Z" fill="#9A8866"/>
<path d="M77.4221 10.7335C77.4221 9.31149 78.5749 8.15869 79.997 8.15869H90.2964C91.7184 8.15869 92.8712 9.31149 92.8712 10.7335V91.8413H77.4221V10.7335Z" fill="#9A8866"/>
<path d="M30.5598 47.2964C30.5598 45.8744 31.7126 44.7216 33.1347 44.7216H43.4341C44.8561 44.7216 46.0089 45.8744 46.0089 47.2964V89.7814H30.5598V47.2964Z" fill="#9A8866"/>
<path d="M14.6719 11.6207C14.625 11.1487 14.4241 10.7819 14.0691 10.5206C13.7141 10.2592 13.2323 10.1285 12.6237 10.1285C12.2102 10.1285 11.861 10.187 11.5762 10.304C11.2914 10.4172 11.0729 10.5752 10.9208 10.778C10.7725 10.9809 10.6984 11.2111 10.6984 11.4686C10.6906 11.6831 10.7355 11.8704 10.833 12.0304C10.9344 12.1903 11.0729 12.3288 11.2485 12.4458C11.424 12.559 11.6269 12.6585 11.8571 12.7443C12.0873 12.8262 12.333 12.8964 12.5944 12.955L13.6712 13.2124C14.194 13.3295 14.6738 13.4855 15.1108 13.6806C15.5477 13.8757 15.9261 14.1156 16.246 14.4004C16.5659 14.6852 16.8137 15.0207 16.9892 15.4069C17.1687 15.7931 17.2604 16.2359 17.2643 16.7353C17.2604 17.4688 17.0731 18.1047 16.7025 18.643C16.3358 19.1775 15.8052 19.593 15.1108 19.8895C14.4202 20.1821 13.5873 20.3284 12.612 20.3284C11.6445 20.3284 10.8018 20.1801 10.0839 19.8837C9.37001 19.5872 8.81213 19.1483 8.4103 18.567C8.01236 17.9818 7.80365 17.2581 7.78414 16.3959H10.2361C10.2634 16.7977 10.3785 17.1332 10.5814 17.4024C10.7881 17.6677 11.0632 17.8686 11.4065 18.0052C11.7537 18.1378 12.1458 18.2041 12.5827 18.2041C13.0119 18.2041 13.3844 18.1417 13.7004 18.0169C14.0203 17.892 14.2681 17.7184 14.4436 17.4961C14.6192 17.2737 14.707 17.0182 14.707 16.7295C14.707 16.4603 14.627 16.234 14.467 16.0506C14.311 15.8673 14.0808 15.7112 13.7765 15.5825C13.4761 15.4537 13.1074 15.3367 12.6705 15.2314L11.3655 14.9037C10.3551 14.6579 9.55728 14.2736 8.97208 13.7508C8.38689 13.2281 8.09624 12.5239 8.10014 11.6383C8.09624 10.9126 8.28936 10.2787 8.67949 9.7364C9.07352 9.19412 9.61384 8.77083 10.3005 8.46653C10.9871 8.16223 11.7674 8.01008 12.6412 8.01008C13.5307 8.01008 14.3071 8.16223 14.9703 8.46653C15.6374 8.77083 16.1563 9.19412 16.5269 9.7364C16.8975 10.2787 17.0887 10.9068 17.1004 11.6207H14.6719ZM17.1939 10.2631V8.17393H27.0368V10.2631H23.3677V20.1587H20.863V10.2631H17.1939ZM27.9408 20.1587H25.2255L29.3628 8.17393H32.6282L36.7596 20.1587H34.0443L31.0423 10.9126H30.9487L27.9408 20.1587ZM27.7711 15.4479H34.1848V17.4258H27.7711V15.4479ZM34.9629 10.2631V8.17393H44.8059V10.2631H41.1367V20.1587H38.6321V10.2631H34.9629ZM51.61 11.6207C51.5632 11.1487 51.3623 10.7819 51.0073 10.5206C50.6523 10.2592 50.1704 10.1285 49.5618 10.1285C49.1483 10.1285 48.7991 10.187 48.5144 10.304C48.2296 10.4172 48.0111 10.5752 47.8589 10.778C47.7107 10.9809 47.6366 11.2111 47.6366 11.4686C47.6288 11.6831 47.6736 11.8704 47.7712 12.0304C47.8726 12.1903 48.0111 12.3288 48.1866 12.4458C48.3622 12.559 48.5651 12.6585 48.7952 12.7443C49.0254 12.8262 49.2712 12.8964 49.5326 12.955L50.6093 13.2124C51.1321 13.3295 51.612 13.4855 52.0489 13.6806C52.4859 13.8757 52.8643 14.1156 53.1842 14.4004C53.5041 14.6852 53.7518 15.0207 53.9274 15.4069C54.1068 15.7931 54.1985 16.2359 54.2024 16.7353C54.1985 17.4688 54.0113 18.1047 53.6406 18.643C53.2739 19.1775 52.7433 19.593 52.0489 19.8895C51.3584 20.1821 50.5255 20.3284 49.5501 20.3284C48.5826 20.3284 47.7399 20.1801 47.0221 19.8837C46.3082 19.5872 45.7503 19.1483 45.3485 18.567C44.9505 17.9818 44.7418 17.2581 44.7223 16.3959H47.1743C47.2016 16.7977 47.3167 17.1332 47.5195 17.4024C47.7263 17.6677 48.0013 17.8686 48.3446 18.0052C48.6919 18.1378 49.0839 18.2041 49.5209 18.2041C49.95 18.2041 50.3226 18.1417 50.6386 18.0169C50.9585 17.892 51.2062 17.7184 51.3818 17.4961C51.5574 17.2737 51.6451 17.0182 51.6451 16.7295C51.6451 16.4603 51.5652 16.234 51.4052 16.0506C51.2492 15.8673 51.019 15.7112 50.7147 15.5825C50.4143 15.4537 50.0456 15.3367 49.6087 15.2314L48.3037 14.9037C47.2932 14.6579 46.4954 14.2736 45.9102 13.7508C45.325 13.2281 45.0344 12.5239 45.0383 11.6383C45.0344 10.9126 45.2275 10.2787 45.6176 9.7364C46.0117 9.19412 46.552 8.77083 47.2386 8.46653C47.9253 8.16223 48.7055 8.01008 49.5794 8.01008C50.4689 8.01008 51.2453 8.16223 51.9085 8.46653C52.5756 8.77083 53.0945 9.19412 53.4651 9.7364C53.8357 10.2787 54.0269 10.9068 54.0386 11.6207H51.61ZM8.17037 24.1739H11.2953L14.5958 32.2262H14.7362L18.0367 24.1739H21.1617V36.1587H18.7038V28.3581H18.6044L15.5028 36.1002H13.8292L10.7277 28.3288H10.6282V36.1587H8.17037V24.1739ZM32.9443 30.1663C32.9443 31.4732 32.6966 32.5851 32.2012 33.5019C31.7096 34.4187 31.0386 35.119 30.1881 35.6028C29.3415 36.0826 28.3896 36.3225 27.3323 36.3225C26.2673 36.3225 25.3115 36.0807 24.4649 35.5969C23.6183 35.1131 22.9492 34.4129 22.4577 33.4961C21.9661 32.5793 21.7203 31.4693 21.7203 30.1663C21.7203 28.8594 21.9661 27.7475 22.4577 26.8307C22.9492 25.9139 23.6183 25.2156 24.4649 24.7357C25.3115 24.252 26.2673 24.0101 27.3323 24.0101C28.3896 24.0101 29.3415 24.252 30.1881 24.7357C31.0386 25.2156 31.7096 25.9139 32.2012 26.8307C32.6966 27.7475 32.9443 28.8594 32.9443 30.1663ZM30.3754 30.1663C30.3754 29.3197 30.2486 28.6058 29.995 28.0245C29.7453 27.4432 29.3922 27.0024 28.9358 26.702C28.4793 26.4016 27.9448 26.2514 27.3323 26.2514C26.7198 26.2514 26.1854 26.4016 25.7289 26.702C25.2725 27.0024 24.9174 27.4432 24.6639 28.0245C24.4142 28.6058 24.2893 29.3197 24.2893 30.1663C24.2893 31.0129 24.4142 31.7268 24.6639 32.3081C24.9174 32.8894 25.2725 33.3303 25.7289 33.6307C26.1854 33.9311 26.7198 34.0813 27.3323 34.0813C27.9448 34.0813 28.4793 33.9311 28.9358 33.6307C29.3922 33.3303 29.7453 32.8894 29.995 32.3081C30.2486 31.7268 30.3754 31.0129 30.3754 30.1663ZM37.7515 36.1587H33.503V24.1739H37.7866C38.9921 24.1739 40.0299 24.4139 40.8999 24.8937C41.7699 25.3697 42.4389 26.0544 42.9071 26.9477C43.3791 27.8411 43.6152 28.9101 43.6152 30.1546C43.6152 31.403 43.3791 32.4759 42.9071 33.3732C42.4389 34.2705 41.766 34.959 40.8882 35.4389C40.0143 35.9188 38.9687 36.1587 37.7515 36.1587ZM36.0369 33.9876H37.6462C38.3952 33.9876 39.0253 33.855 39.5364 33.5897C40.0513 33.3205 40.4376 32.905 40.6951 32.3432C40.9564 31.7775 41.0871 31.048 41.0871 30.1546C41.0871 29.269 40.9564 28.5453 40.6951 27.9835C40.4376 27.4218 40.0533 27.0082 39.5422 26.7429C39.0312 26.4776 38.4011 26.345 37.6521 26.345H36.0369V33.9876Z" fill="#9A8866"/>
</svg>
